inDegrees=no
num_controls=7
num_derivatives=13
num_iterations=167
num_multipliers=7
num_parameters=0
num_slacks=7
num_states=26
objective=5.103673
objective_accelerations=0.406324
objective_balance=0.106385
objective_effort=0.316739
objective_height=4.253679
objective_ligament=0.020546
solver_duration=1891.466849
status=Solve_Succeeded
success=true
DataType=double
version=3
OpenSimVersion=4.4-2022-07-23-0e9fedc
endheader
time	/jointset/ground_pelvis/pelvis_tilt/value	/jointset/ground_pelvis/pelvis_tx/value	/jointset/ground_pelvis/pelvis_ty/value	/jointset/hip_l/hip_flexion_l/value	/jointset/hip_l/hip_adduction_l/value	/jointset/hip_l/hip_rotation_l/value	/jointset/back/lumbar_extension/value	/jointset/patellofemoral_l/patellar_flexion_l/value	/jointset/knee_l/knee_flexion_l/value	/jointset/knee_l/knee_adduction_l/value	/jointset/knee_l/knee_rotation_l/value	/jointset/ankle_l/ankle_angle_l/value	/jointset/subtalar_l/subtalar_angle_l/value	/jointset/ground_pelvis/pelvis_tilt/speed	/jointset/ground_pelvis/pelvis_tx/speed	/jointset/ground_pelvis/pelvis_ty/speed	/jointset/hip_l/hip_flexion_l/speed	/jointset/hip_l/hip_adduction_l/speed	/jointset/hip_l/hip_rotation_l/speed	/jointset/back/lumbar_extension/speed	/jointset/patellofemoral_l/patellar_flexion_l/speed	/jointset/knee_l/knee_flexion_l/speed	/jointset/knee_l/knee_adduction_l/speed	/jointset/knee_l/knee_rotation_l/speed	/jointset/ankle_l/ankle_angle_l/speed	/jointset/subtalar_l/subtalar_angle_l/speed	/forceset/tau_hip_flexion_l	/forceset/tau_hip_adduction_l	/forceset/tau_hip_rotation_l	/forceset/tau_knee_flexion_l	/forceset/tau_ankle_angle_l	/forceset/tau_subtalar_angle_l	/forceset/tau_lumbar_extension	lambda_cid13_p0	lambda_cid13_p1	lambda_cid13_p2	lambda_cid13_p3	lambda_cid13_p4	lambda_cid13_p5	lambda_cid14_p0	/jointset/ground_pelvis/pelvis_tilt/accel	/jointset/ground_pelvis/pelvis_tx/accel	/jointset/ground_pelvis/pelvis_ty/accel	/jointset/hip_l/hip_flexion_l/accel	/jointset/hip_l/hip_adduction_l/accel	/jointset/hip_l/hip_rotation_l/accel	/jointset/back/lumbar_extension/accel	/jointset/patellofemoral_l/patellar_flexion_l/accel	/jointset/knee_l/knee_flexion_l/accel	/jointset/knee_l/knee_adduction_l/accel	/jointset/knee_l/knee_rotation_l/accel	/jointset/ankle_l/ankle_angle_l/accel	/jointset/subtalar_l/subtalar_angle_l/accel	gamma_cid13_p0	gamma_cid13_p1	gamma_cid13_p2	gamma_cid13_p3	gamma_cid13_p4	gamma_cid13_p5	gamma_cid14_p0
0	-0.1601683238985186	0.05857496607025175	0.89799877193556	0.3774920279260975	-0.2591366694531534	-0.2729762580930605	-0.0126506700172305	0.03223623128433591	0.03223623128433527	-0.1745329251994329	0.1745329221713751	-0.04231376238535053	-0.009261028175931286	0	0	0	0	0	0	0	0	0	0	0	0	0	0.1505404513088668	-0.1067525343872012	-0.05811186782606065	-0.3533202097773864	0.4135724274575666	-0.04424622682950904	-0.08408220683833022	90.90902208622329	-2.058669512179717	6.045108333891976	-48.60761078535208	-601.1497524481762	-84.67446966163472	-39.07542333913093	-2.306454931655015	-0.7105100634141629	-0.7115506687884771	7.995639444141476	-1.1492889612898	2.886082433660339	-4.69525379247709	8.127767254898817	8.127767254898819	0.02439269076350348	0.004492511664279573	2.608664751867618	-0.5669616047010601	-3.13632120478935e-08	6.712127361811952e-08	6.206112255543276e-08	9.979593695767287e-09	1.329914332993017e-08	-2.727011704855125e-08	-8.631010947570012e-09
0.01	-0.1602790313366816	0.05853989464123543	0.8979640721871848	0.3778811259413458	-0.2591936007340756	-0.2728324687952486	-0.01288565234668293	0.03263347591847005	0.03263347591847371	-0.1745329251994329	0.1745305801049349	-0.04218659155864507	-0.009289594556236361	-0.02200488912966474	-0.006993208403832228	-0.00691366593548302	0.07745850442741303	-0.01132957359002461	0.02862251622282981	-0.04669337342607483	0.07911423653651099	0.07911423653651065	1.775574683454702e-06	-0.0004524330776094252	0.02531888217048166	-0.00568432221663648	0.1445112890460231	-0.1151857241848788	-0.05667452095453093	-0.3446916466285911	0.3987665928471024	-0.03039063131017855	-0.0794763662324517	86.64356118306542	-7.089627072493178	6.573410176722484	-46.02981342104423	-601.9993810143726	-94.21883323140992	-39.08669147985793	-2.127021910365718	-0.690562623061083	-0.6773293351417047	7.566785470673584	-1.116309049031882	2.830028162008027	-4.610915248036513	7.753050035612086	7.753050035612029	-0.01178148686030134	-0.06771939289433751	2.476204839992365	-0.5648417680675613	-5.074003466102943e-08	7.592006738727659e-08	8.792716330816855e-08	2.550640941685231e-08	-7.523338545005142e-08	-2.220174687831795e-08	-1.44136971777967e-08
0.02	-0.1606056908674899	0.05843552384934215	0.897861024823612	0.3790339749065976	-0.2593621312491327	-0.2724065159461271	-0.01357847563646819	0.03381182255449156	0.0338118225544921	-0.1745328774474312	0.1745241920726174	-0.04180969093216406	-0.009374139006292317	-0.04319041852907176	-0.01385987257539301	-0.01366952303951735	0.1527501900001203	-0.02231984682697242	0.05643271026220825	-0.09156819206670432	0.1562204003764157	0.156220400376415	9.492042126082533e-06	-0.0008091931720488665	0.04994595995512038	-0.01119561395017673	0.1384821267832058	-0.123618913982554	-0.05523717408303357	-0.3360630834797798	0.3839607582366419	-0.01653503579084441	-0.07487052562655343	82.44402478594205	-12.13459272431705	7.106766032696983	-43.64820307282451	-601.8992362795385	-103.6665011158384	-39.12009455756031	-2.142582985603456	-0.685201216959884	-0.6799889024987298	7.56227567320034	-1.081428890674329	2.72361799697004	-4.331542835388027	7.726152715577553	7.726152715577557	0.02558086931555467	0.02362710829829066	2.470303874699051	-0.5323555080817007	-7.011685727416535e-08	8.471886115643365e-08	1.137932040609043e-07	4.103322513793734e-08	-1.63765914230033e-07	-1.713337670808465e-08	-2.019638340802338e-08
0.03	-0.161140275385776	0.05826307622918344	0.8976910683218982	0.3809293201286604	-0.259638644289333	-0.2717064386712401	-0.0147109289022439	0.03575132980312064	0.03575132980312166	-0.1745325114916382	0.1745146861026221	-0.04118995431362152	-0.009512744150961138	-0.06359005436144925	-0.02061188270853201	-0.02030621823140998	0.2259702873832864	-0.03290599131157514	0.08345426497509115	-0.1346329922937598	0.2313449332250032	0.2313449332250029	7.953511044147503e-05	-0.001082667732510541	0.07388337336415873	-0.01648076134970066	0.1320065717077877	-0.1156185825443434	-0.05394769240515415	-0.3274313476440375	0.372545163932005	-0.01903806913926415	-0.06995283355948352	78.6504589011586	-10.57003397671134	7.070626507711952	-41.04725722565044	-602.1141330557386	-99.40163318962593	-39.17461300419152	-1.96819544245153	-0.6675273299030009	-0.6532090776537532	7.149582086274695	-1.035711563487668	2.6721370401813	-4.250528297180947	7.355190213469072	7.355190213469115	0.0001175666023956356	-0.05144872702076021	2.337755850261074	-0.519921797503516	-8.614243369023927e-08	9.260292575063741e-08	1.356682688467093e-07	5.434423806355058e-08	-2.368696758326337e-07	-1.301471058016813e-08	-2.480266704118289e-08
0.04	-0.1618747645744652	0.05802364322401097	0.8974552050182415	0.3835464073876356	-0.2600187196416061	-0.2707400032828776	-0.01626534610645341	0.03843199970903042	0.03843199970903036	-0.1745309647969506	0.1745027225892589	-0.04033438440573759	-0.009702866257948356	-0.08317135260969265	-0.02725694957814847	-0.02685088342808631	0.2970985973824503	-0.04303230924155472	0.1097043329573289	-0.175960979753482	0.3044529318323791	0.3044529318323786	0.000245639819270879	-0.001300701845066104	0.0971126178233908	-0.02149900641385589	0.1255310166323731	-0.1076182511061331	-0.05265821072728081	-0.3187996118082934	0.3611295696273681	-0.02154110248768418	-0.06503514149241013	74.91912459515464	-9.014576392302924	7.033891114958822	-38.63387502090465	-601.4482056240089	-95.04095798676457	-39.24910791605083	-1.978915468776647	-0.6638125642553621	-0.6615829034554721	7.143918196399878	-0.9894635797497243	2.569320650841009	-3.984180281921374	7.322845867335227	7.322845867335113	0.04479319741830741	0.03471519787952824	2.328670084737803	-0.4789750410079821	-1.0209891224658e-07	1.004681299494813e-07	1.574610454682477e-07	6.760956433358709e-08	-3.096553185243607e-07	-8.915625978897311e-09	-2.938469495069154e-08
0.05	-0.1628011887749141	0.05771823228101716	0.8971542136885369	0.3868648432115647	-0.2604977307878552	-0.2695149235549305	-0.01822430909032701	0.04183397480483201	0.04183397480483753	-0.1745273733008595	0.1744889712408741	-0.03925004431270028	-0.009941832719666775	-0.1019767400203768	-0.03381228499400508	-0.03334155992641085	0.3662495958769424	-0.0526868636309407	0.1351867169952252	-0.2155586480975968	0.3756042261311227	0.3756042261311209	0.0004808761362669942	-0.001443600541909817	0.1196287324103077	-0.02624802082401292	0.1186359198586504	-0.1039813263089372	-0.05124342570941438	-0.3100957111315004	0.3480614348791285	-0.01918205997518629	-0.05983003901482467	70.82415056822207	-9.390359871540914	7.171759712424126	-35.96485487624012	-601.1178226460601	-94.5968026621595	-39.34209228335181	-1.810844649727731	-0.6494372971266359	-0.6419991542908899	6.749832156543529	-0.9410130954098382	2.518940527530446	-3.906614772143377	6.960597945458388	6.960597945458272	0.0141528664942905	-0.03791862276203587	2.194073800304194	-0.465957408483442	-1.142590070147444e-07	1.075658751939913e-07	1.755549085540827e-07	7.775100707404788e-08	-3.646539078830457e-07	-5.145430821656603e-09	-3.288244682534762e-08
0.06	-0.1639115657039723	0.05734765933048964	0.8967884777675951	0.3908646173165566	-0.2610707998233736	-0.268038771337153	-0.02057105968993808	0.04593732819049271	0.04593732819049282	-0.1745211766380545	0.1744739656616505	-0.0379443447428667	-0.01022690787897954	-0.1199618983316024	-0.04028935108489329	-0.03979980167553053	0.433366253594219	-0.06184388709539945	0.1599188309237824	-0.2535185029011867	0.4447285898024453	0.444728589802443	0.000766673159424477	-0.001551548010580834	0.1413845131826469	-0.03072074593272497	0.1117408230849671	-0.1003444015117392	-0.04982864069160012	-0.3013918104546792	0.3349933001308961	-0.01682301746268401	-0.0546249365372118	66.78497904151925	-9.774872767256717	7.30983333580792	-33.46828270059993	-599.99168942591	-94.06903304059378	-39.45201224332783	-1.81486964888496	-0.6481586992616739	-0.6550959536145003	6.737050040956792	-0.8899573947642859	2.419266628973179	-3.656617573816398	6.917459741851046	6.917459741851054	0.05490533865056554	0.04170544351407829	2.17660332182226	-0.4237171807189907	-1.262592540444592e-07	1.146313063772662e-07	1.934930279120985e-07	8.776091787642124e-08	-4.189035686803394e-07	-1.389083641006639e-09	-3.633454497222043e-08
0.07000000000000001	-0.165198056649405	0.0569128221827788	0.8963582078559523	0.3955258879444418	-0.2617329111328767	-0.2663190607650882	-0.02328902452915288	0.0507221755277207	0.05072217552772351	-0.1745118783205585	0.1744582096859327	-0.03642460266309641	-0.01055524232584216	-0.1372112712990989	-0.04665180496090188	-0.04625517037170979	0.4985482815018135	-0.07048985940038581	0.1839009936958219	-0.2898061117319068	0.5119023334903381	0.5119023334903344	0.001096652440212563	-0.001595486736757942	0.1624522988086206	-0.0348927498032755	0.1051264366046603	-0.09581804976644773	-0.04857587445935861	-0.2940712399191518	0.3239718630843201	-0.01578200309470619	-0.04955637914001278	63.32546369282702	-9.704752834450575	7.394034604258508	-31.36980161449387	-599.3160226609937	-92.65959338626244	-39.57702848034264	-1.661224861202464	-0.6263300337785332	-0.6409902237098472	6.357825330455138	-0.8386608303944999	2.369319395458956	-3.574579556241492	6.566557368021484	6.566557368021249	0.02262956373551892	-0.02684687466168345	2.055115834337548	-0.4059715218576421	-1.355950044550235e-07	1.094099420162222e-07	2.141457535152491e-07	9.501661167468427e-08	-4.581837049941247e-07	-7.293641836777762e-09	-4.037552336778194e-08
0.08	-0.1666532920726164	0.05641515223590626	0.8958633376781299	0.4008287880843636	-0.2624788309018354	-0.2643632029064761	-0.02636181486038284	0.05616860543898496	0.05616860543898516	-0.174499163142064	0.174442133654152	-0.03469753279679584	-0.01092370271773721	-0.1537107938874184	-0.05285591091723349	-0.05271985491149354	0.5616921560011807	-0.07860557898652076	0.2071482882334467	-0.3244836013042951	0.5770451046087544	0.577045104608749	0.00145004535870481	-0.001615559222057399	0.1828500704886994	-0.03874593493920823	0.09851205012437163	-0.09129169802115322	-0.0473231082271427	-0.2867506693836072	0.3129504260377501	-0.01474098872672374	-0.04448782174280443	59.91672550405721	-9.640740956631859	7.47603297819948	-29.42971174736684	-597.9215768999518	-91.17326570052586	-39.71525521519616	-1.664899573049559	-0.6164891153262735	-0.6569591223353952	6.329419359311348	-0.7839068509940104	2.272292982090237	-3.334593722150048	6.511265227955707	6.511265227955683	0.05958806619139381	0.04647869168961751	2.042600532643286	-0.3599534337954327	-1.447588518579006e-07	1.03395881168448e-07	2.349736150051826e-07	1.020946140533273e-07	-4.964980655347804e-07	-1.38214842503825e-08	-4.44544940374524e-08
0.09	-0.1682700612968582	0.05585622171546372	0.8953036698213099	0.4067535236775472	-0.263303259774472	-0.2621785984367286	-0.0297732044269872	0.06225673982142946	0.06225673982142966	-0.1744828373118917	0.174426179070234	-0.03276969989738163	-0.01132908455536964	-0.169521556643603	-0.05890315910131007	-0.0592203792909585	0.6229210450531197	-0.08618798631144935	0.2296526212531168	-0.3575381998180162	0.6402428253679612	0.6402428253679699	0.001815482036806836	-0.001573577075222243	0.2026038554374515	-0.04227470690871938	0.09176599995780221	-0.08708243933646313	-0.04607949925284972	-0.27986192428975	0.3020907758245513	-0.01328003664258638	-0.03931004766678832	56.54601874754102	-9.752048982029436	7.570311334826049	-27.44904318801427	-596.9581444041552	-90.03977794169703	-39.86459089994484	-1.520947297666832	-0.5947670261220708	-0.6476984403599012	5.969519051164767	-0.7315975218133167	2.221470024620395	-3.25247608621575	6.173192479873181	6.173192479875281	0.02511350127025174	-0.0167105616601514	1.92485834446027	-0.3410215323795884	-1.503036274818856e-07	8.883943213916349e-08	2.541031194317407e-07	1.060130402392261e-07	-5.203161437098576e-07	-2.463551588070933e-08	-4.828528245634686e-08
